<svg style="position:absolute;height:0;width:0" xmlns="http://www.w3.org/2000/svg"><defs><symbol id="chevron" viewBox="0 0 12 24"><path d="M8 0L6 1.8 14.4 12 6 22.2 8 24l10-12z"/></symbol><symbol id="facebook" viewBox="0 0 25 25"><path fill-rule="evenodd" d="M1.4 25C.6 25 0 24.4 0 23.6V1.4C0 .6.6 0 1.4 0h22.2c.8 0 1.4.6 1.4 1.4v22.2c0 .8-.6 1.4-1.4 1.4h-6.4v-9.7h3.3l.5-3.8h-3.8V9.1c0-1 .4-1.8 2-1.8h2V3.9l-3-.1c-2.9 0-4.8 1.7-4.8 5v2.7H10v3.8h3.3V25h-12z"/></symbol><symbol id="linkedin" viewBox="0 0 25 25"><path fill-rule="evenodd" d="M25 23.9h-5.5v-8c0-2.1-.8-3.5-2.8-3.5-1.4 0-2.2 1-2.6 1.9l-.1 1.2V24H8.5V8.4H14v2.4c.3-1 2-2.5 4.9-2.5 3.4 0 6.2 2.2 6.2 7v8.6zM3 6.5c-2 0-3-1.2-3-2.7 0-1.5 1.2-2.7 3-2.7s2.9 1.2 3 2.7c0 1.5-1.2 2.7-3 2.7zm-2.4 2h5v15.4h-5V8.4z"/></symbol><symbol id="twitter" viewBox="0 0 25 25"><path fill-rule="evenodd" d="M22 5.5c1-.6 1.9-1.7 2.3-2.9-1 .6-2.1 1-3.3 1.3a5 5 0 0 0-3.7-1.7 5.2 5.2 0 0 0-5 6.5C8 8.4 4.3 6.4 1.7 3.2a5.3 5.3 0 0 0 1.6 7A5 5 0 0 1 1 9.5v.1c0 2.5 1.8 4.7 4.1 5.1a4.9 4.9 0 0 1-2.3.1 5.2 5.2 0 0 0 4.8 3.7A10.1 10.1 0 0 1 0 20.7C2.3 22 5 23 7.8 23c9.5 0 14.6-8 14.6-15v-.6c1-.7 1.9-1.7 2.5-2.7-.9.4-1.9.7-2.9.8z"/></symbol><symbol id="email" viewBox="0 0 25 25"><path fill-rule="evenodd" d="M0 22h25V3H0v19zM23 6v14H2V6.1l10.5 9.741L23 6zm-10.5 7L4 5h17l-8.5 8z"/></symbol><symbol id="footer-facebook" viewBox="0 0 34 34"><path fill="#4460A0" fill-rule="evenodd" d="M17.96 31H4.55C3.69 31 3 30.3 3 29.45V4.55C3 3.69 3.7 3 4.55 3h24.9c.86 0 1.55.7 1.55 1.55v24.9c0 .86-.7 1.55-1.55 1.55h-7.13V20.16h3.64l.54-4.23h-4.18v-2.7c0-1.22.34-2.05 2.1-2.05h2.23V7.4c-.39-.06-1.71-.17-3.26-.17-3.23 0-5.43 1.97-5.43 5.58v3.12H14.3v4.23h3.65V31z"/></symbol><symbol id="footer-linkedIn" viewBox="0 0 34 34"><path fill="#007EBB" fill-rule="evenodd" d="M30.7 29.18h-6.12v-8.85c0-2.32-.96-3.9-3.07-3.9-1.6 0-2.5 1.07-2.92 2.1-.16.37-.13.88-.13 1.4v9.25h-6.07s.08-15.68 0-17.1h6.07v2.68c.36-1.17 2.3-2.85 5.39-2.85 3.84 0 6.85 2.46 6.85 7.76v9.51zM6.26 9.94h-.04C4.27 9.94 3 8.63 3 6.97 3 5.28 4.3 4 6.3 4c1.99 0 3.2 1.28 3.25 2.97 0 1.65-1.26 2.97-3.29 2.97zM3.7 12.08h5.4v17.1H3.7v-17.1z"/></symbol><symbol id="footer-twitter" viewBox="0 0 34 34"><path fill="#1DA1F2" d="M32.19 8.4c-1.12.5-2.32.84-3.54.99a6.25 6.25 0 0 0 2.69-3.45 12.4 12.4 0 0 1-3.92 1.51 6.18 6.18 0 0 0-10.56 5.66 17.6 17.6 0 0 1-12.74-6.5 6.18 6.18 0 0 0 1.89 8.25 6.18 6.18 0 0 1-2.78-.76v.1a6.18 6.18 0 0 0 4.95 6.04c-.54.15-1.1.23-1.65.23l-1.18-.1a6.18 6.18 0 0 0 5.8 4.3 12.45 12.45 0 0 1-7.69 2.64L2 27.21A17.55 17.55 0 0 0 11.48 30c11.42 0 17.64-9.43 17.64-17.64v-.8A12.6 12.6 0 0 0 32.2 8.4z"/></symbol><symbol id="footer-blog" viewBox="0 0 34 34"><path fill="#ED8B00" d="M31 16.6c0-11.3 0-10.3-.5-11.2a4.2 4.2 0 0 0-3-2.3H6.3a4.2 4.2 0 0 0-3.2 3L3 17l.1 10.8.7 1.4a4.8 4.8 0 0 0 2.4 1.7L17 31l10.8-.1a4 4 0 0 0 3.1-3.6c0-.4.1-3.5 0-10.7zm-5.4 2l-.1 3c-.3.9-.7 1.7-1.4 2.4a5.2 5.2 0 0 1-3.1 1.6h-8.4a5.4 5.4 0 0 1-4-3.7c-.3-.7-.3-1.3-.3-5.3l.1-4a5.5 5.5 0 0 1 3.4-3.9c1-.3 1.5-.4 4.2-.4l2.4.1c1 .3 1.9.9 2.6 1.6a5 5 0 0 1 1.6 3.5c0 .7 0 1 .4 1.2.4.2.4.2 1.2.2l1 .1.4.7v2.9zM13 15.3h2l1.9-.1c.3-.2.5-.5.5-.9a.8.8 0 0 0-.6-.8l-2-.1c-2 0-2 0-2.2.3a1 1 0 0 0 .4 1.6zm0 6.1s.8.2 3.4.1H20a1 1 0 0 0 .2-1.6c-.4-.3-.4-.3-3.8-.3s-3.5 0-3.8.2a1 1 0 0 0 .3 1.6z"/></symbol><symbol id="footer-youtube" viewBox="0 0 34 34"><path fill="#D0021B" d="M32.7 10.8s-.3-2.2-1.3-3.1a6 6 0 0 0-3.2-1.4C23.7 6 17 6 17 6s-6.7 0-11.2.3c-.7 0-2 0-3.2 1.4a5.4 5.4 0 0 0-1.3 3.2L1 16v2.5l.3 5.2s.3 2.2 1.3 3.1c1 1 2.8 1.2 3.5 1.4 2.6.2 10.9.3 10.9.3s6.7 0 11.2-.3c.6 0 2 0 3.2-1.4a5.7 5.7 0 0 0 1.3-3.2c.1-1.7.3-3.4.3-5.2V16a48.5 48.5 0 0 0-.3-5.2zm-19 10.6v-9l8.7 4.5-8.7 4.5z"/></symbol><symbol id="footer-instagram" viewBox="0 0 25 25"><path d="M12.5 0h5.2c1.3.1 2.2.3 3 .7a6.1 6.1 0 0 1 3.7 3.7c.3.7.5 1.6.5 3a88.7 88.7 0 0 1-.6 13.3 6.1 6.1 0 0 1-3.7 3.7c-.7.3-1.6.5-3 .5a88.7 88.7 0 0 1-13.3-.6 6.1 6.1 0 0 1-3.7-3.7c-.3-.7-.5-1.6-.5-3A88.7 88.7 0 0 1 .7 4.4 6.1 6.1 0 0 1 4.4.6C5 .4 6 .2 7.3.2l5.1-.1zm0 2.3h-5a7 7 0 0 0-2.4.5c-.6.2-1 .5-1.4.9a5 5 0 0 0-1 1.4 7 7 0 0 0-.4 2.3A86.7 86.7 0 0 0 2.8 20c.2.6.5 1 .9 1.4.4.4.8.7 1.4 1a7 7 0 0 0 2.3.4 86.7 86.7 0 0 0 12.5-.5c.6-.2 1-.5 1.4-.9a5 5 0 0 0 1-1.4 7 7 0 0 0 .4-2.3A86.7 86.7 0 0 0 22.2 5c-.2-.6-.5-1-.9-1.4a5 5 0 0 0-1.4-1 7 7 0 0 0-2.3-.4h-5.1zm0 3.8a6.4 6.4 0 1 1 0 12.8 6.4 6.4 0 0 1 0-12.8zm0 10.6a4.2 4.2 0 1 0 0-8.4 4.2 4.2 0 0 0 0 8.4zm8.2-10.9a1.5 1.5 0 1 1-3 0 1.5 1.5 0 0 1 3 0z"/></symbol><symbol id="arrow" viewBox="0 0 16 16"><path d="M7 11.73L3.27 8 2 9.27l6.034 6.034 6.034-6.033L12.798 8 9 11.797V1H7v10.73z"/></symbol><symbol id="external-link" viewBox="0 0 16 16"><path d="M14.2 3.2L7.5 10 6 8.5l6.7-6.7H7.5V0H16v8.5h-1.8V3.2zM12 15.1v.9H0V4h6v1.8H1.8v8.4h8.4V10H12v5.1z"/></symbol><symbol id="dfds-logo" viewBox="0 0.3 154 53.4"><path fill="#002B45" d="M74.6 39.3c-.4 0-.6-.1-.6-.6V15.3c0-.4.1-.6.6-.6h11.3c4.4 0 6.9 2.4 6.9 6.5v11.5c0 4.1-2.5 6.5-6.9 6.5H74.6zm10.6-5c1.7 0 2.3-.7 2.3-2.5v-9.7c0-1.8-.7-2.5-2.3-2.5h-5.9v14.6h5.9zm16.4 4.4c0 .4-.1.6-.6.6h-4.2c-.4 0-.6-.1-.6-.6V15.3c0-.4.1-.6.6-.6h15.1c.4 0 .6.1.6.6v3.8c0 .4-.1.6-.6.6h-10.3V25h9c.4 0 .6.1.6.6v3.8c0 .4-.1.6-.6.6h-9v8.7zm14.3.6c-.4 0-.6-.1-.6-.6V15.3c0-.4.1-.6.6-.6h11.3c4.4 0 6.9 2.4 6.9 6.5v11.5c0 4.1-2.5 6.5-6.9 6.5h-11.3zm10.6-5c1.7 0 2.3-.7 2.3-2.5v-9.7c0-1.8-.7-2.5-2.3-2.5h-5.9v14.6h5.9zm11.1 5c-.4 0-.6-.1-.6-.6v-3.8c0-.4.1-.6.6-.6l8.8.1c1.7 0 2.3-.1 2.3-1.9v-.6c0-1.3-.3-1.7-1.5-2l-5.4-1.8c-2.4-.7-4.8-1.5-4.8-5.9v-1.9c0-4.1 2.5-5.9 6.9-5.9l8.2.1c.4 0 .6.1.6.6v3.8c0 .4-.1.6-.6.6l-7.5-.1c-1.7 0-2.3 0-2.3 1.8v.5c0 1.3.3 1.5 1.5 1.9l5.4 1.8c2.3.7 4.8 1.5 4.8 5.9v1.9c0 4.1-2.5 6.1-6.9 6.1h-9.5zM43.5 53.5L74 1c.2-.3 0-.6-.3-.6H30.9l-.3.2L.1 53c-.2.3 0 .6.3.6h42.7c.2.1.3 0 .4-.1z"/><path fill="#FFF" d="M49.1 35l-9.9-5.9c-.1 0-.2 0-.1.1l5.9 9.9-.1.2H29.1l-.1-.2 6-9.9c0-.1 0-.2-.1-.1L25 35l-.2-.1V19.1l.2-.1 9.8 5.9c.1 0 .2 0 .1-.1L29 14.9l.1-.2h15.8l.1.2-5.9 9.9c0 .1 0 .2.1.1L49 19l.2.1V35c.1 0 0 .1-.1 0z"/></symbol><symbol id="toggle-menu-search" viewBox="0 0 25 20"><path fill="#68B2E3" fill-rule="evenodd" d="M1 16h24c.6 0 1 .4 1 1v1c0 .6-.4 1-1 1H1a1 1 0 0 1-1-1v-1c0-.6.4-1 1-1zm0-8h24c.6 0 1 .4 1 1v1c0 .6-.4 1-1 1H1a1 1 0 0 1-1-1V9c0-.6.4-1 1-1zm0-8h24c.6 0 1 .4 1 1v1c0 .6-.4 1-1 1H1a1 1 0 0 1-1-1V1c0-.6.4-1 1-1z"/></symbol><symbol id="login" viewBox="0 0 26 27"><path fill="#D8DAD9" d="M13 14a7 7 0 1 1 0-14 7 7 0 0 1 0 14zm13 8.8a24.2 24.2 0 0 1-13.2 3.5A25 25 0 0 1 0 22.8v-1c.2-1.3.6-2.5 1.3-3.6C2.7 16.2 5 15 7.4 15h1.8c.5 0 .9 0 1 .3.3.2.6.5.8 1l2 3.4 2-3.5.7-1 1-.2h1.9a7.3 7.3 0 0 1 7.3 6.9l.1.9z"/></symbol><symbol id="triangle" viewBox="0 0 13 13"><path transform="translate(-7 -34)" d="M13.5 34L20 47H7z"/></symbol><symbol id="search" viewBox="0 0 25 25"><path d="M25 23.2l-8.1-8a8.9 8.9 0 1 0-1.8 1.7l8.1 8.1 1.8-1.8zm-19.6-9a6.3 6.3 0 1 1 8.9-8.8 6.3 6.3 0 0 1-9 8.9z"/></symbol><symbol id="cross" viewBox="0 0 24 24"><path d="M21.3 0L12 9.3 2.7 0 0 2.7 9.3 12 0 21.3 2.7 24l9.3-9.3 9.3 9.3 2.7-2.7-9.3-9.3L24 2.7z"/></symbol><symbol id="passenger-ferries" viewBox="0 0 70 33"><path d="M24.7 12.8l1 3.6h36.8l-.7-1.4-8.3-1.7a1 1 0 0 1-1-1l-.1-1.2c0-.4.5-.5.5-.5h6.3l-1.5-2.4h-17L37.9 0h-4.8l-5.8 8.2h-2.5c-.2 1-.7 1.8-1.5 2.5.7.5 1.2 1.3 1.4 2.1zM46 11.6a1 1 0 0 1 1-1h1a1 1 0 0 1 .9 1v2c0 .3-.2.7-.6.9H47a1 1 0 0 1-.4 0 1 1 0 0 1-.5-1v-1.9zm-5.7 0a1 1 0 0 1 1-1h1a1 1 0 0 1 1 1v2c0 .3-.3.7-.6.9h-1.4a1 1 0 0 1-.4 0 1 1 0 0 1-.6-1v-1.9zm-5.7 0a1 1 0 0 1 1-1h1a1 1 0 0 1 1 1v2c0 .3-.2.7-.6.9h-1.4a1 1 0 0 1-.4 0 1 1 0 0 1-.6-1v-1.9zm-5.6 0a1 1 0 0 1 1-1h1a1 1 0 0 1 1 1v2c0 .3-.3.7-.6.9H30a1 1 0 0 1-.4 0 1 1 0 0 1-.6-1v-1.9zm12.8-5.3zM26.1 17.9h43.3l-4.8 8.4h-.8c-7.4 0-7.4 4.5-14.9 4.5-7.4 0-5.5-2.9-13-2.9-5.6 0-6.3 1-11.7 2.2l.3-2.6H26a2 2 0 0 0 2-2v-.3L26 18zm-20.6-8a2.6 2.6 0 0 1-2.7-2.6c0-1.5 1.2-2.6 2.7-2.6C6.9 4.7 8 5.8 8 7.3S6.9 10 5.5 10zm15.1 0A2.6 2.6 0 0 1 18 7.4c0-1.5 1.2-2.6 2.6-2.6 1.5 0 2.7 1.1 2.7 2.6S22 10 20.6 10zm-7.5 9.3c-.9 0-1.6-.7-1.6-1.7s.7-1.7 1.6-1.7c1 0 1.7.8 1.7 1.7 0 1-.7 1.7-1.7 1.7zM23.3 13l3.3 12.4c0 .2-.2.4-.5.4h-2.8l-1 6.5c0 .2-.2.4-.4.4H21l-.2-.2-.2-.5-.3.5-.1.1h-1c-.2 0-.5 0-.5-.3l-.2-1.9-1-8.8L16 23l-.8 3-1 6.3c0 .2 0 .2-.2.2h-.6l-.2-.3-.1.3h-.7c-.1 0-.3 0-.3-.2l-.9-6.5-1-3.9H10l-1 .5h-.2l-1.3 10c-.1.1-.3.3-.5.3h-.9l-.1-.2-.3-.5-.3.5-.1.1h-1c-.2 0-.4 0-.4-.3l-1.4-9.9h-.2l-1-.4a1 1 0 0 1-.5-1l.2-7.2A3 3 0 0 1 4 11h3a3 3 0 0 1 3.1 3l.4 6h5.6l1.9-7a3 3 0 0 1 2.7-2.2c1.3 0 2.4.9 2.7 2z"/></symbol><symbol id="freight-boat" viewBox="0 0 80 30"><path d="M2.5 25.5C1 23.2.2 20.5.2 17.7H78l-4.5 7.7H73c-6.9 0-6.9 4-13.8 4s-13.7-4-20.6-4c-6.8 0-13.7 4.1-20.6 4.1-6.8 0-6.9-4.1-13.7-4.1l-1.8.1zM0 12.5h8.8v3.7H0v-3.7zm32.8 0h8.8v3.7h-8.8v-3.7zm10 0h8.8v3.7H43v-3.7zm10.1 0h8.8v3.7h-8.8v-3.7zM26.7 4.6l4.7 11.7h-21V4.6h1.8L13.7 0h4l2.7 4.6h6.3zm47.1 7l6 2.6-1.2 2.1H63.2L67.6 9h4.2l1.6 2.3a.4.4 0 0 0 .4.4z"/></symbol><symbol id="logistics-truck" viewBox="0 0 71 28"><path d="M61 19.6a3.8 3.8 0 1 0 0 7.7 3.8 3.8 0 0 0 0-7.7zM56 25H41.2c.6-1.5.2-3.2-.8-4.4h14V2.9a1.4 1.4 0 0 1 1.4-1.4L67.5 3c3.4.5 3.5 4.6 3.5 6.2H59.3s-.7 0-.7.6v1.6a2 2 0 0 0 1.6 1.5l10.7 2v8.4c0 .8-.5 1.7-1.4 1.7H66v-1.7a4.9 4.9 0 1 0-9.7 0V25h-.4zm5.2.4a2 2 0 1 1 2-2 2 2 0 0 1-2 2zm-24.8-5.7a3.8 3.8 0 1 1 0 7.6 3.8 3.8 0 0 1 0-7.6zm0 5.7a2 2 0 0 0 2-2 2 2 0 1 0-2 2zm-30-5.7a3.8 3.8 0 1 1 0 7.6 3.8 3.8 0 0 1 0-7.6zm0 5.7a2 2 0 0 0 1.9-2 2 2 0 1 0-2 2zm8.6-5.7a3.8 3.8 0 1 1 0 7.6 3.8 3.8 0 0 1 0-7.6zm0 5.7a2 2 0 0 0 2-2 2 2 0 1 0-2 2zM1 0h50.5c.5 0 1 .4 1 1v17c0 .6-.5 1-1 1H1a1 1 0 0 1-1-1V1c0-.6.4-1 1-1z"/></symbol><symbol id="about-us" viewBox="0 0 61 38"><path d="M34 32.6h6.6v4H34v-4zm9.3-2.8h6.5v6.9h-6.5v-6.9zm9.2-11.3H59v18.2h-6.5V18.5zM23.5 0a3.8 3.8 0 1 1 0 7.6 3.8 3.8 0 0 1 0-7.6zm-3.2 21.3c-1.1 0-2.1.4-3 1.1v-.3l.4-9.3a4 4 0 0 1 4-3.7h3.8a4 4 0 0 1 3.8 2.6 4.2 4.2 0 0 0-3.3 5.6l-4.4 4.2a4 4 0 0 0-1.3-.2zM26 36.5l-.6.4h-1.2l-.1-.2-.4-.7-.4.7-.1.2h-1.3c-.3 0-.6-.1-.6-.4l-1-6.8a4.2 4.2 0 0 0 4-5.3l4.6-4.4h1l.1 2c0 .6-.3 1-.7 1.2l-1.5.6L26 36.5zM8.6.5a3.8 3.8 0 1 1 0 7.5 3.8 3.8 0 0 1 0-7.6zm8 27.5a.6.6 0 0 1-.7.6h-3.7L11 36.9c-.1.3-.3.5-.6.5H9.2l-.1-.2-.4-.7-.4.7-.1.2H7c-.4 0-.7-.2-.7-.5l-1.1-8.3H1.6c-.5 0-.8-.2-.6-.6l4.3-15.8a3.8 3.8 0 0 1 3.5-2.8c1.6 0 3 1.1 3.5 2.7L16.5 28zm38-27a6 6 0 1 1-3 11l-8 8.9a3.2 3.2 0 1 1-6 .6L32 18.3c-1 .8-2.2 1-3.3.5l-5.5 5.3a3.2 3.2 0 1 1-1.4-1.4l5.4-5.2a3.2 3.2 0 1 1 5.9-.9l5.5 3.2c1-.8 2.4-1 3.5-.4l7.9-8.7A6 6 0 0 1 54.5 1z"/></symbol><symbol id="download" viewBox="0 0 16 16"><path d="M9 3v8.8L12.8 8l1.3 1.3-6 6-6.1-6L3.3 8 7 11.7V3H2V1h12v2H9z"/></symbol><symbol id="customer-center" viewBox="0 0 35 28"><path d="M22.6 10.9c0 1-.3 2-.9 2.6a5 5 0 0 1-2.2 1.4l-.6.3-1 .4-.2.4-.1.8v.6l-.1.4h-3.7l-.1-.4v-1c0-1 .2-1.9.7-2.4.4-.5 1-1 1.9-1.3l1.4-.6.8-.6c.2-.2.2-.6.2-1V10c0-.6-.1-1-.4-1.3-.3-.2-.7-.4-1.4-.4a208.6 208.6 0 0 0-5.3 0V5h.3l5.3-.2c1.8 0 3.1.5 4 1.3 1 .8 1.4 2 1.4 3.5V11zm-4.9 12v.3h-4.1v-3.7h4.1V23zm11.5-.9c1.7-2.3 2.7-5 2.7-8 0-7.7-6.5-14-14.4-14h-3.2C6.5 0 0 6.3 0 14s6.5 14 14.3 14H35l-5.8-6z"/></symbol><symbol id="ferry-crossing" viewBox="0 0 68 35"><path d="M18.8 24.9h48.8L63.4 32h-.6c-6.4 0-8.6 2.5-15 2.5-6.6 0-12-3.7-18-3.7s-8.9 1.3-8.9 1.3a13.6 13.6 0 0 1-2.1-7.3zm43.4-2.7l.6 1.1h-36l3.4-7h4.4l5-9h4.2l2.4 9h12.5l1.3 2.1h-5.5s-.4 0-.4.4v1c.1.3.3.7 1 .9l7 1.5zm-11-1.3v-1.6c0-.5-.5-.9-1-.9h-.8c-.4 0-.8.4-.8.9v1.6c0 .4.2.7.5.8h1.5c.3-.1.5-.4.5-.8zm-7 0v-1.6c0-.5-.3-.9-.8-.9h-.9c-.4 0-.8.4-.8.9v1.6c0 .4.2.7.5.8h1.5c.3-.1.5-.4.5-.8zm-6.9 0v-1.6c0-.3-.1-.6-.4-.7a.8.8 0 0 0-.4-.2h-.9c-.5 0-.8.4-.8.9v1.6c0 .4.2.7.5.8h1.6c.2-.1.4-.4.4-.8zM3.7 12.1l.5-.9 5.3-1.1c.6-.2.7-.4.7-.7v-.8c0-.2-.2-.2-.2-.2H5.9l.9-1.6h9.5L18 0h3l4 6.8h4l2.5 5.3H3.7zm8.8-3v1.2c0 .2.2.4.4.5l.3.1h.8c.2-.2.4-.4.4-.6V9c0-.3-.3-.6-.7-.6h-.6c-.4 0-.7.3-.7.6zm5.2 0v1.2c0 .2.2.4.4.5l.3.1h.9l.3-.6V9c0-.3-.2-.6-.6-.6h-.6c-.4 0-.7.3-.7.6zM23 9v1.2c0 .2.2.4.4.5l.3.1h.8c.2-.2.4-.4.4-.6V9c0-.3-.3-.6-.6-.6h-1c-.2.2-.4.4-.4.6zm6.2 6.2l-.2.5-1.2 2.4c-4.2.3-8.1 2.7-12.7 2.7-5 .2-6.7-1.8-11.5-1.8h-.5L0 13.5h34c0 .7 0 1.3-.2 1.8h-4.7z"/></symbol><symbol id="business-cruises" viewBox="0 0 66 28"><path d="M34.1 9.7l.4 6.4c0 .3-.2.7-.5.8l-.9.4-1.3 8.8c-.1.2-.2.3-.4.3h-.9v-.2l-.3-.4-.3.4v.2H29c-.2 0-.4-.1-.4-.3l-1.2-8.8-1-6-4.9-1.4c-.7-.2-1.2-.6-1.2-1.2v-.2c0-.7.5-1.2 1.2-1.2l9.9-.2c1.4 0 2.6 1.1 2.7 2.6zM31 6a2.5 2.5 0 1 1 0-5 2.5 2.5 0 0 1 0 5zm4.5 12.3h30.2L61.6 25H61c-6.4 0-8.6 2.3-15 2.3-4.1 0-7.7-1.8-11.5-2.4l1-6.6zm1-8.3a3.8 3.8 0 0 0-2-3l3.3-6H42l2.3 9h12.5l1.2 2.2h-5.4s-.4 0-.4.4l.1 1c0 .3.2.7 1 .9l7 1.5.6 1.2H37v-.5l-.4-6.7zm4 3v2c0 .4.4.8.9.8h.9c.4 0 .8-.4.8-.8v-1.7c0-.5-.4-.9-.8-.9h-1c-.4 0-.8.4-.8.9zm6.6 0v2c0 .4.4.8.8.8h1c.4 0 .7-.4.7-.8v-1.7c0-.5-.3-.9-.8-.9H48c-.4 0-.8.4-.8.9zM26.4 5.6h-1.7v-2h-23v13.8h23v-4.8l1.7.5v6H14.2l5.4 7.4h-2l-3.6-5v4.9h-1.6v-5l-3.9 5h-2L12 19H0V1.8h12.3V0h1.8v1.8h12.3v3.7z"/></symbol><symbol id="cruises-and-packages" viewBox="0 0 60 35"><path d="M4.4 12.8a2.5 2.5 0 1 1 0-5 2.5 2.5 0 0 1 0 5zm14.4.3a2.5 2.5 0 1 1 0-5 2.5 2.5 0 0 1 0 5zm-7 8.7a1.6 1.6 0 1 1 0-3.2 1.6 1.6 0 0 1 0 3.2zm9.6-5.9l3 11.6c0 .3-.1.5-.4.5h-2.7l-.8 6c-.2.3-.3.4-.5.4h-.9v-.2l-.4-.5-.2.5-.1.2h-1c-.2 0-.4-.1-.4-.3l-.2-1.8-1-8.3-1.5 1.3-.7 2.8-.9 6-.2.2H12l-.1-.1-.2-.3-.1.3H11l-.3-.1-.9-6.2-1-3.6-1 .5h-.1L6.4 34c-.1.2-.2.3-.5.3H5v-.2l-.3-.5-.3.5-.1.2h-1c-.2 0-.4-.1-.4-.3l-1.3-9.3-1-.4a.9.9 0 0 1-.6-1l.2-6.7a3 3 0 0 1 3-2.7h2.7a3 3 0 0 1 3 2.7l.3 5.6h5.3l1.7-6.3c.4-1.1 1.4-2 2.6-2 1.2 0 2.2.8 2.6 2zm32.2 1.8l-2.2-3.9h-14V.8c0-.5.4-.8.8-.8h15.5c.4 0 .8.3.8.8v16.9h-.9zM39.3 8.6v2.7c0 .4.4.8.8.8h1.3c.4 0 .8-.4.8-.8V8.6c0-.4-.4-.8-.8-.8h-1.3c-.4 0-.8.4-.8.8zm0-5.8v2.7c0 .4.4.7.8.7h1.3c.4 0 .8-.3.8-.7V2.8c0-.5-.4-.8-.8-.8h-1.3c-.4 0-.8.3-.8.8zm5.1 5.8v2.7c0 .4.4.8.8.8h1.3c.4 0 .8-.4.8-.8V8.6c0-.4-.4-.8-.8-.8h-1.3c-.4 0-.8.4-.8.8zm0-5.8v2.7c0 .4.4.7.8.7h1.3c.4 0 .8-.3.8-.7V2.8c0-.5-.4-.8-.8-.8h-1.3c-.4 0-.8.3-.8.8zm5.1 5.8v2.7c0 .4.4.8.8.8h1.3c.4 0 .8-.4.8-.8V8.6c0-.4-.4-.8-.8-.8h-1.3c-.4 0-.8.4-.8.8zm0-5.8v2.7c0 .4.4.7.8.7h1.3c.4 0 .8-.3.8-.7V2.8c0-.5-.4-.8-.8-.8h-1.3c-.4 0-.8.3-.8.8zM25.3 24.5h34.5l-4.4 7.8h-.6c-6.9 0-9.2 2.6-16.1 2.6-5.8 0-10.6-3.6-16.2-3l.4-2.4h1.6c1 0 1.7-.7 1.7-1.6v-.2l-.9-3.2zm28.9-2.9l.7 1.2H25l-1.7-6.4-.4-1h2l5.3-9.6h4.4l2.5 9.6h13.4l1.3 2.3h-5.7s-.5 0-.5.3v1c.1.5.3.9 1 1l7.6 1.6zm-17-2.3h-.1.1zm5.7 1v-1.8c0-.4-.4-.8-1-.8H41c-.5 0-.9.4-.9.8v1.8c0 .5.4 1 .9 1h1c.5 0 .9-.5.9-1zm-7 0v-1.8c0-.4-.4-.8-1-.8H34c-.5 0-.9.4-.9.8v1.8c0 .5.4 1 1 1h.9c.5 0 .9-.5.9-1zm-7 0v-1.8c0-.4-.4-.8-1-.8H27c-.5 0-.9.4-.9.8v1.8c0 .5.4 1 1 1h.9c.5 0 .9-.5.9-1z"/></symbol><symbol id="groups" viewBox="0 0 58 29"><path d="M11.7 16.7a6.7 6.7 0 0 1 0-13.3c3.6 0 6.5 3 6.5 6.7 0 3.6-2.9 6.6-6.5 6.6zm11.6 8.5v.8c-3.2 2-7 2.6-11 2.6-4.6 0-8.9-.8-12.3-3.4a6.7 6.7 0 0 1 6.6-6.3h1.7c.4 0 .7 0 1 .2l.6 1 1.8 3 1.7-3 .7-1 1-.2h1.6a6.7 6.7 0 0 1 6.6 6.3zm5.3-12a6.5 6.5 0 0 1-6.5-6.6c0-3.6 3-6.6 6.5-6.6a6.7 6.7 0 0 1 0 13.3zm17 3c-3.6 0-6.6-3-6.6-6.7s3-6.6 6.6-6.6c3.6 0 6.5 3 6.5 6.6 0 3.7-3 6.6-6.5 6.6zM57 24.5l.1.8c-3.2 2.1-7 2.6-11.1 2.6-4.6 0-8.8-.8-12.2-3.4a6.7 6.7 0 0 1 6.6-6.3h1.7c.4 0 .7.1 1 .3l.6.9 1.7 3.1 1.8-3.1c.2-.5.4-.8.7-1l.9-.2h1.6a6.7 6.7 0 0 1 6.6 6.3zm-25-.1v.5a38.4 38.4 0 0 1-7 .1 8.5 8.5 0 0 0-6.2-7.4c1.2-1.3 2.9-2 4.7-2h1.7c.5 0 .8 0 1 .2l.6.9 1.8 3.1 1.8-3.1.6-.9c.2-.2.6-.2 1-.2h1.6c1.6 0 3.1.5 4.2 1.5-3 1-5.4 4-5.6 7.5z"/></symbol><symbol id="automotive" viewBox="0 0 200 58"><path fill-rule="evenodd" d="M75.4 53.8c2.5 0 4.4-2 4.4-4.5 0-2.4-2-4.4-4.4-4.4-2.5 0-4.5 2-4.5 4.3 0 2.5 2 4.5 4.4 4.5m0-13c4.7 0 8.5 3.8 8.5 8.5 0 4.8-4 8.6-8.6 8.6-4.7 0-8.6-4-8.6-8.7 0-4.7 4-8.5 8.6-8.5zm55.7 0c5 0 8.7 4 8.7 8.6 0 4.7-3.8 8.6-8.6 8.6-4.6 0-8.4-4-8.4-8.6 0-4.7 3.8-8.5 8.5-8.5zm0 13c2.6 0 4.6-2 4.6-4.4 0-2.4-2-4.4-4.5-4.4-2.3 0-4.3 2-4.3 4.4 0 2.5 2 4.5 4.4 4.5zM79.5 17.5H53c0-3.7.2-13 8-14L87 0c2 0 3.4 1.3 3.5 3v40H122c-2.6 2.6-3.3 6.4-2 9.8H86.2V49c0-6-4.8-11-10.8-11.2-6 0-11 4.8-11.2 10.8v4.2h-8c-1.7 0-3-2-3-3.8V30.3S75 26 77.4 25.5c2.5-.6 3-2 3.3-3.2l.3-3.6c0-1.3-1.6-1.3-1.6-1.3zm51.2 15c2-.6 4 .7 4.5 2.7.6 2-.7 4.2-2.7 4.7-2 .4-4-.8-4.5-2.8-.5-2.2.8-4.2 2.8-4.7zm-23.2 0c2 0 3.8 1.8 3.8 3.8 0 2-1.7 3.8-3.8 3.8-2 0-3.8-1.7-3.8-3.8 0-2 1.7-3.7 3.8-3.7zm24.7-5.2c8.8.6 14.8 8.7 12.2 9.4-2 .5-7.8.3-7.8.3v-1c-.2-3-2.5-5-5.2-5-2.8 0-5 2.4-4.8 5.2v.3l-14 .2V36c0-2.7-2.2-4.8-5-4.8-2.7 0-5 2.4-4.8 5v.2H97c-5 0-3-7-1.2-8.5.4-.5 2-1 2.8-1.3 4.8-4.2 9.7-7 15.5-7 8.8 0 14.2 3.3 18 7.5zm-.4 0c-4-3-8.3-5.7-15.4-5.7h-3l.6 4.8c0 .6 0 .8 1.4 1h16.4zm-30.2 0H112v-5.4h-.2c-5.5.5-12 5.4-10.4 5.4zm-.7-12c.5-2 2.5-3.2 4.5-2.7s3.3 2.5 2.8 4.5c-.4 2-2.5 3.3-4.5 2.8s-3.3-2.5-2.8-4.5zm27.7-2.6c2 0 3.8 1.7 3.8 3.8 0 2-1.7 3.8-3.8 3.8-2 0-3.8-1.7-3.8-3.8 0-2 1.7-3.8 3.8-3.8zm-36.8 4.2C89 16 95 8 103.6 7.4c4-4.2 9.4-7.4 18-7.4 6 0 10.8 2.7 15.7 7 .7.3 2.3.7 2.7 1 1.7 1.5 3.7 8.5-1.3 8.5h-5.5v-.3c0-2.7-2.4-5-5-4.8-2.8 0-5 2.4-5 5v.4l-13.8-.2v-.5c0-2.7-2.3-4.8-5-4.8-2.8 0-5 2.4-5 5v1s-6 0-7.8-.4zM104 7.4h16.7c1.5 0 1.3-.3 1.4-1 .2-.5.5-4.4.5-4.7h-3c-7 0-11.2 2.8-15.4 5.7zm19.8 0h10.6c1.7 0-5-5-10.4-5.5 0 0-.2 0 0 0l-.2 5.4z"/></symbol><symbol id="hazardous_cargo" viewBox="0 0 200 58"><path fill-rule="evenodd" d="M199 0c.6 0 1 .4 1 1v38c0 .5-.4 1-1 1h-19v18h-4V40H1c-.6 0-1-.5-1-1V1c0-.6.4-1 1-1h198zm-98 4c-.7 0-1.4.4-1.7 1l-16 28c-.2.3-.3.7-.3 1 0 1.2 1 2.2 2 2.2h32c1.3 0 2.3-1 2.3-2 0-.5 0-1-.3-1.2l-.3-.5L103 5c-.4-.6-1-1-2-1zm1.8 8.8h.2c.2 0 .3.3.2.4l-.3 10.5s0 .2-.2.3h-3.2c-.2 0-.3 0-.2-.3L99 13.3V13l.4-.2h3.4zm-3.4 14h3.6c.2 0 .3.3.2.5v3.4h-4.1v-3.6s.3-.2.4 0zM65.7 54.3c-2.3 0-4.2-2-4.2-4.2 0-2.3 2-4.2 4.2-4.2 2.3 0 4 2 4 4.2 0 2.3-1.7 4.2-4 4.2zm0-12.2c4.4 0 8 3.6 8 8s-3.6 8-8 8c-4.5 0-8-3.6-8-8s3.5-8 8-8zm19 0c4.5 0 8 3.6 8 8s-3.5 8-8 8c-4.3 0-8-3.6-8-8s3.7-8 8-8zm-38 0c4.3 0 8 3.6 8 8s-3.7 8-8 8c-4.6 0-8-3.6-8-8s3.4-8 8-8zm38 12.2c2.4 0 4.2-2 4.2-4.2 0-2.3-2-4.2-4.2-4.2-2.3 0-4.2 2-4.2 4.2 0 2.3 2 4.2 4.2 4.2zm-38 0c2.2 0 4-2 4-4.2 0-2.3-1.8-4.2-4-4.2-2.4 0-4.3 2-4.3 4.2 0 2.3 2 4.2 4.2 4.2z"/></symbol><symbol id="industrial_cargo" viewBox="0 0 200 58"><path fill-rule="evenodd" d="M127 0c-9.8 0-17.6 8-17.7 17.6 0 9.2 7 17 16.3 17.5H89c9.7-.6 17-9 16.2-18.7-.7-9.7-9-17-18.8-16.3-9.7.8-17 9.2-16.3 19 .8 8.6 7.7 15.5 16.4 16H49.7c9.7-.6 17-9 16.3-18.7-.7-9.7-9.2-17-19-16.3-9.6.8-16.8 9.2-16 19 .5 8.6 7.5 15.5 16 16H22v3.2c0 .6.5 1 1 1h106.5V58h4.2V39.2h16l9.6-12.4H177c.5 0 1-.6 1-1.2v-3h-21.3l-10 12.3h-18.5c9.7-.6 17-9 16.3-18.7C143.8 7 136.2 0 127 0zm0 23.8c-3.5 0-6.2-2.8-6.2-6.2 0-3.3 2.7-6 6-6 3.5 0 6.2 2.7 6.2 6 0 3.4-2.7 6.2-6 6.2m0-13.3c4 0 7 3.2 7 7 0 4-3 7.3-7 7.3s-7.3-3.2-7.3-7.2 3.3-7 7.2-7zm0 11c2 0 3.6-1.8 3.6-4 0-2-1.6-3.6-3.7-3.6-2.2 0-3.8 1.6-3.8 3.6s1.6 3.8 3.7 3.8zm-39.3 2.3c-3.4 0-6.2-2.8-6.2-6.2 0-3.3 2.8-6 6.2-6 3.3 0 6 2.7 6 6 0 3.4-2.7 6.2-6 6.2m0-13.3c4 0 7 3.2 7 7 0 4-3 7.3-7 7.3s-7.2-3.2-7.2-7.2 3.2-7 7.2-7zm0 11c2 0 3.7-1.8 3.7-4 0-2-1.7-3.6-3.7-3.6S84 15.5 84 17.5s1.6 3.8 3.7 3.8zm-39.3 2.3c-3.4 0-6-2.8-6-6.2 0-3.3 2.6-6 6-6s6 2.7 6 6c0 3.4-2.6 6.2-6 6.2m0-13.3c4 0 7.2 3.2 7.2 7 0 4-3.2 7.3-7.2 7.3s-7.2-3.2-7.2-7.2 3.3-7 7.2-7zm0 11c2 0 3.7-1.8 3.7-4 0-2-1.5-3.6-3.6-3.6-2 0-3.7 1.6-3.7 3.6s1.7 3.8 3.7 3.8zM61 54c-2.5 0-4.4-2-4.4-4.3 0-2.4 2-4.3 4.3-4.3s4.2 2 4.2 4.3-2 4.3-4.3 4.3zm0-12.6c4.5 0 8.2 3.7 8.2 8.3 0 4.5-3.7 8.2-8.3 8.2-4.7 0-8.4-3.8-8.4-8.3 0-4.6 3.7-8.3 8.3-8.3zm19.7 0c4.5 0 8.2 3.7 8.2 8.3 0 4.5-3.8 8.2-8.3 8.2-4.6 0-8.3-3.8-8.3-8.3 0-4.6 3.7-8.3 8.3-8.3zm-39.5 0c4.5 0 8.2 3.7 8.2 8.3 0 4.5-3.7 8.2-8.2 8.2-4.6 0-8.3-3.8-8.3-8.3 0-4.6 3.6-8.3 8.2-8.3zm0 12.6c2.4 0 4.3-2 4.3-4.3 0-2.4-2-4.3-4.3-4.3-2.4 0-4.3 2-4.3 4.3S38.7 54 41 54zm39.5 0c2.3 0 4.3-2 4.3-4.3 0-2.4-2-4.3-4.3-4.3-2.4 0-4.3 2-4.3 4.3s2 4.3 4.3 4.3z"/></symbol><symbol id="iso_container" viewBox="0 0 200 58"><path fill-rule="evenodd" d="M199 9c.6 0 1 .4 1 1v38c0 .6-.4 1-1 1H1c-.6 0-1-.4-1-1V10c0-.6.4-1 1-1h198zm-10 36h2V13h-2v32zm-6 0h2V13h-2v32zm-6 0h2V13h-2v32zm-6 0h2V13h-2v32zm-6 0h2V13h-2v32zm-6 0h2V13h-2v32zm-6 0h2V13h-2v32zm-6 0h2V13h-2v32zm-6 0h2V13h-2v32zm-6 0h2V13h-2v32zm-6 0h2V13h-2v32zm-6 0h2V13h-2v32zm-6 0h2V13h-2v32zm-6 0h2V13h-2v32zm-6 0h2V13h-2v32zm-6 0h2V13h-2v32zm-6 0h2V13h-2v32zm-6 0h2V13h-2v32zm-6 0h2V13h-2v32zm-6 0h2V13h-2v32zm-6 0h2V13h-2v32zm-6 0h2V13h-2v32zm-6 0h2V13h-2v32zm-6 0h2V13h-2v32zm-6 0h2V13h-2v32zm-6 0h2V13h-2v32zm-6 0h2V13h-2v32zm-6 0h2V13h-2v32zm-6 0h2V13h-2v32zm-6 0h2V13h-2v32zm-6 0h2V13H9v32z"/></symbol><symbol id="mobile_machine" viewBox="0 0 200 58"><path fill-rule="evenodd" d="M147.3 55.7c-3 0-5.6-2.5-5.6-5.6 0-3 2.5-5.5 5.6-5.5 3 0 5.6 2.5 5.6 5.6 0 3.2-2.6 5.7-5.7 5.7zm-49 0c-3 0-5.5-2.5-5.5-5.6 0-3 2.4-5.5 5.5-5.5 3 0 5.6 2.5 5.6 5.6 0 3.2-2.6 5.7-5.7 5.7zM147.8 42c4.4 0 8 3.6 8 8s-3.5 8-8 8h-50c-4.3 0-8-3.6-8-8s3.7-8 8-8h50zM100 35.8l3-6.6-14.6-17.5c-1.4-1.8-5-3.2-10-2.5L55 12.5 65.6 35 64 49.4l-4 2.5-6.4-9.6c-.3-.7-.3-3.6.4-4.3l5-4.7S45.4 9 45 7.6c-.3-1.4 1.5-1.4 2.2-1 .6.2 4.6 2.6 6.2 3.5l26-7c2-.5 4-.8 6-.7 3.5 0 7 3.2 10 7.8l14.2 20V14c0-7.8 6.3-14 14-14h11.3c1.3 0 2.4 1 2.4 2.5V22h5c2.4 0 4.3 1.8 4.3 4l.2 10c0 .8-.4 1.7-1 2.3-.5.7-1.3 1-2 1h-41.2c-1.5 0-2.8-1.2-2.8-2.8v-.7zm13-22v19.8h16.7l1.3-1 .7-6.5c.2-1.2 1-2.5 2.2-3.2V3.5h-10.5C117.8 3.5 113.2 8 113 14z"/></symbol><symbol id="reefer_container" viewBox="0 0 200 58"><path fill-rule="evenodd" d="M117 37.5V45h2V13h-2v7.5c1.3 2.6 2 5.4 2 8.5 0 3-.7 6-2 8.5zm-6 7v.5h2v-2l-2 1.5zm0-31l2 1.6v-2h-2v.5zM87 43v2h2v-.5L87 43zm0-28l2-1.5V13h-2v2zm-4 5.5V13h-2v32h2v-7.5C81.7 35 81 32 81 29s.7-6 2-8.5zM199 9c.6 0 1 .4 1 1v38c0 .6-.4 1-1 1H1c-.6 0-1-.4-1-1V10c0-.6.4-1 1-1h198zm-10 36h2V13h-2v32zm-6 0h2V13h-2v32zm-6 0h2V13h-2v32zm-6 0h2V13h-2v32zm-6 0h2V13h-2v32zm-6 0h2V13h-2v32zm-6 0h2V13h-2v32zm-6 0h2V13h-2v32zm-6 0h2V13h-2v32zm-6 0h2V13h-2v32zm-6 0h2V13h-2v32zm-6 0h2V13h-2v32zm-48 0h2V13h-2v32zm-6 0h2V13h-2v32zm-6 0h2V13h-2v32zm-6 0h2V13h-2v32zm-6 0h2V13h-2v32zm-6 0h2V13h-2v32zm-6 0h2V13h-2v32zm-6 0h2V13h-2v32zm-6 0h2V13h-2v32zm-6 0h2V13h-2v32zm-6 0h2V13h-2v32zm-6 0h2V13H9v32zm106-14.2h.2c1 0 1.7-.8 1.7-1.8s-1-1.7-2-1.7h-1.3l.7-1.4c.5-1 .2-2-.6-2.5s-2-.2-2.4.7l-1.8 3H103l3.3-5.6h3.6c.8 0 1.6-.8 1.6-1.8S111 18 110 18h-1.7l.7-1.2c.5-1 .2-2-.6-2.4-1-.5-2-.2-2.4.6l-.7 1.3-.8-1.4c-.5-1-1.6-1.2-2.4-.7-.7.5-1 1.5-.6 2.4l1.8 3-3.3 5.8-3.4-5.7 1.8-3v-.2c.6-.8.2-2-.6-2.4-1-.5-2 0-2.4.7l-.8 1.3L94 15c-.6-1-1.7-1-2.6-.6-.8.5-1 1.6-.6 2.4l.8 1.2H90c-1 0-1.7.8-1.7 1.8s.7 1.7 1.7 1.8h3.6l3.3 5.7h-6.7l-1.8-3c-.5-1-1.6-1.3-2.4-.8-.7.5-1 1.6-.6 2.4l.8 1.3h-1.4c-1 0-1.8.8-1.8 1.8s.8 1.8 1.8 1.8h1.4l-.8 1.4c-.5.8-.2 2 .7 2.4 1 .5 2 .2 2.5-.7l1.8-3.2H97l-3.4 5.7H90c-1 0-1.7.8-1.7 1.7 0 1 .7 1.8 1.7 1.8h1.6l-.7 1.3h-.2c-.5 1 0 2 .7 2.4 1 .5 2 .2 2.4-.7l.6-1.2.8 1.4c.5.8 1.5 1 2.4.6.8-.5 1-1.6.7-2.4l-1.8-3 3.3-5.8 3.2 5.7-1.8 3c-.4 1 0 2 .7 2.5 1 .5 2 .2 2.5-.6l.8-1.4.7 1.2c.5 1 1.5 1.2 2.4.7.8-.5 1-1.6.6-2.4l-.7-1.3h1.6c.8 0 1.6-.7 1.6-1.7s-.7-1.8-1.7-1.8H106l-3.3-5.7h6.6l1.8 3c.5 1 1.5 1.2 2.4.8.8-.5 1-1.6.6-2.4l-.7-1.4h1.4z"/></symbol><symbol id="reefer_trailer" viewBox="0 0 200 58"><path fill-rule="evenodd" d="M199 0c.6 0 1 .4 1 1v38c0 .5-.4 1-1 1h-19v18h-4V40H1c-.6 0-1-.5-1-1V1c0-.6.4-1 1-1h198zm-83.8 21.8c1 0 1.8-1 1.8-1.8 0-1-1-1.8-1.8-1.8h-1.5l.8-1.3c.5-1 .2-2-.6-2.5-1-.5-2-.2-2.5.6l-1.8 3.2H103l3.4-5.7h3.6c1 0 1.7-.8 1.7-1.7 0-1-.8-1.8-1.7-1.8h-1.6l.7-1.2c.6-1 .3-2-.5-2.5-1-.4-2 0-2.4.7l-.6 1.2-.8-1.3c-.5-1-1.6-1.2-2.4-.8-1 .5-1.2 1.6-.7 2.4l1.8 3.2-3.3 5.7-3.3-5.7 1.8-3.2c.5-1 .2-2-.6-2.4-1-.5-2-.2-2.5.7L94.7 7 94 6c-.6-1-1.7-1.2-2.5-.7-.8.6-1 1.6-.6 2.5l.6 1.2H90c-1 0-1.6.8-1.7 1.7 0 1 .8 1.8 1.8 1.8h3.7l3.3 5.7h-6.6l-1.8-3c-.5-1-1.6-1.2-2.4-.7-1 .5-1.2 1.5-.7 2.4l.8 1.2h-1.6c-1 0-1.7 1-1.7 1.8 0 1 1 1.8 2 1.8h1.3l-.8 1.3c-.5 1-.2 2 .7 2.5.8.5 2 .2 2.4-.6l1.8-3.2H97l-3.3 5.7H90c-1 0-1.6.8-1.7 1.7 0 1 .8 1.8 1.8 1.8h1.6l-.7 1.2c-.6 1-.3 2 .6 2.5.8.5 2 0 2.4-.7l.7-1.2.8 1.3c.5 1 1.5 1.2 2.3.7 1-.4 1.2-1.5.7-2.3l-1.8-3.2 3.3-5.7 3.3 5.7-1.8 3.2c-.5.8-.2 2 .7 2.4.8.4 2 .2 2.4-.7l.8-1.2.7 1.2c.6.8 1.6 1 2.5.6.8-.4 1-1.5.6-2.4l-.6-1.2h1.6c1 0 1.7-.8 1.7-1.7 0-1-.8-1.8-1.7-1.8h-3.6l-3.3-5.7h6.7l1.8 3c.5 1 1.5 1.2 2.4.7.7-.5 1-1.5.5-2.4l-.8-1.2h1.5zM65.7 54.2c-2.3 0-4.2-2-4.2-4.2 0-2.3 2-4.2 4.2-4.2 2.3 0 4 2 4 4.2 0 2.3-1.7 4.2-4 4.2zm0-12.2c4.4 0 8 3.6 8 8s-3.6 8-8 8c-4.5 0-8-3.6-8-8s3.5-8 8-8zm19 0c4.5 0 8 3.6 8 8s-3.5 8-8 8c-4.3 0-8-3.6-8-8s3.7-8 8-8zm-38 0c4.3 0 8 3.6 8 8s-3.7 8-8 8c-4.6 0-8-3.6-8-8s3.4-8 8-8zm38 12.2c2.4 0 4.2-2 4.2-4.2 0-2.3-2-4.2-4.2-4.2-2.3 0-4.2 2-4.2 4.2 0 2.3 2 4.2 4.2 4.2zm-38 0c2.2 0 4-2 4-4.2 0-2.3-1.8-4.2-4-4.2-2.4 0-4.3 2-4.3 4.2 0 2.3 2 4.2 4.2 4.2z"/></symbol><symbol id="self_drive" viewBox="0 0 200 58"><path fill-rule="evenodd" d="M69.4 53.8c2.5 0 4.4-2 4.4-4.5 0-2.4-2-4.4-4.4-4.4-2.5 0-4.5 2-4.5 4.3 0 2.5 2 4.5 4.4 4.5m0-13c-4.7 0-8.6 3.8-8.6 8.5 0 4.8 4 8.6 8.6 8.6 4.7 0 8.5-4 8.5-8.7 0-4.7-4-8.5-8.6-8.5zm55.7 0c-4.6 0-8.4 4-8.4 8.6 0 4.7 3.8 8.6 8.5 8.6 5 0 8.7-4 8.7-8.6 0-4.7-3.8-8.5-8.6-8.5zm20.4 0c-4.7 0-8.5 4-8.5 8.6 0 4.7 3.7 8.6 8.4 8.6 4.8 0 8.6-4 8.6-8.6 0-4.7-3.8-8.5-8.6-8.5zM125 54c-2.3 0-4.3-2-4.3-4.4 0-2.4 2-4.4 4.4-4.4 2.6 0 4.6 2 4.6 4.4 0 2.5-2 4.5-4.5 4.5zm20.4 0c-2.4 0-4.4-2-4.4-4.4 0-2.4 2-4.4 4.4-4.4 2.5 0 4.5 2 4.5 4.4 0 2.5-2 4.5-4.6 4.5zm-72-36.4s1.6 0 1.6 1.3c0 1.2 0 2.4-.3 3.6-.2 1.3-.8 2.6-3.3 3.2-2.5.6-24.2 4.8-24.2 4.8V49c0 1.8 1.3 3.8 3 3.8h8v-4.2c0-6 5-11 11.2-10.8 6 0 11 5 10.8 11.2v3.8H114c-1.3-3.4-.6-7.2 2-10H84.4V3.2c0-1.7-1.6-3-3.4-3L55 3.4c-7.8 1-8 10.3-8 14h26.4z"/></symbol><symbol id="trailer" viewBox="0 0 200 58"><path fill-rule="evenodd" d="M199 0c.6 0 1 .4 1 1v38c0 .5-.4 1-1 1h-19v18h-4V40H1c-.6 0-1-.5-1-1V1c0-.6.4-1 1-1h198zM65.7 54.2c-2.3 0-4.2-2-4.2-4.2 0-2.3 2-4.2 4.2-4.2 2.3 0 4 2 4 4.2 0 2.3-1.7 4.2-4 4.2zm0-12.2c4.4 0 8 3.6 8 8s-3.6 8-8 8c-4.5 0-8-3.6-8-8s3.5-8 8-8zm19 0c4.5 0 8 3.6 8 8s-3.5 8-8 8c-4.3 0-8-3.6-8-8s3.7-8 8-8zm-38 0c4.3 0 8 3.6 8 8s-3.7 8-8 8c-4.6 0-8-3.6-8-8s3.4-8 8-8zm38 12.2c2.4 0 4.2-2 4.2-4.2 0-2.3-2-4.2-4.2-4.2-2.3 0-4.2 2-4.2 4.2 0 2.3 2 4.2 4.2 4.2zm-38 0c2.2 0 4-2 4-4.2 0-2.3-1.8-4.2-4-4.2-2.4 0-4.3 2-4.3 4.2 0 2.3 2 4.2 4.2 4.2z"/></symbol><symbol id="bulk_liquid" viewBox="0 0 200 58"><path d="M130 3H70c-11 0-20 9-20 20s9 20 20 20v12h4V43h52v12h4V43c11 0 20-9 20-20s-9-20-20-20zm-30 32c-4 0-8-4-8-8 0-5 8-15 8-15s8 10 8 15c0 4-4 8-8 8z"/></symbol><symbol id="pdf" viewBox="0 0 16 16"><path stroke-width="1.8" d="M9.6 1L13 4.3V15H3V1h6.6z"/></symbol><symbol id="switch-arrows" viewBox="0 0 24 24"><path stroke-width=".2" d="M8.5 17l3.7-3.8L11 12l-6 6 6 6 1-1.4L8.6 19H19v-2H8.5zm7-10L12 10.6l1 1.3 6-6-6-6-1.2 1.2L15.5 5H5v2h10.5z"/></symbol><symbol id="checkmark" viewBox="0 0 16 16"><path fill="#FFF" d="M8.2 13.2c-.3 0-.6 0-.8-.2l-5-4.1A1.2 1.2 0 1 1 4 7l3.8 3.2 4-7.6a1.2 1.2 0 1 1 2 1.2l-4.6 8.8a1.2 1.2 0 0 1-1 .6"/></symbol><symbol id="pin" viewBox="0 0 40 50"><g fill="none" fill-rule="evenodd"><path fill="#68B2E3" d="M20 31.9A12 12 0 0 1 8 19.8a12 12 0 0 1 12-12 12 12 0 0 1 12 12 12 12 0 0 1-12 12M20 0C9 0 0 9 0 20.1c0 6.8 5.8 15.5 8.3 19C9.1 40 16.3 50 20 50c5.1 0 20-19.2 20-29.9A20 20 0 0 0 20 0"/><path fill="#FFF" fill-opacity=".7" d="M20 31.9A12 12 0 0 1 8 19.8a12 12 0 0 1 12-12 12 12 0 0 1 12 12 12 12 0 0 1-12 12"/></g></symbol><symbol id="three-dots" viewBox="0 0 21 5"><path d="M2.5 5a2.5 2.5 0 1 1 0-5 2.5 2.5 0 0 1 0 5zm8 0a2.5 2.5 0 1 1 0-5 2.5 2.5 0 0 1 0 5zm8 0a2.5 2.5 0 1 1 0-5 2.5 2.5 0 0 1 0 5z"/></symbol><symbol id="cross-with-circle" viewBox="0 0 20 20"><path d="M10 20a10 10 0 1 1 0-20 10 10 0 0 1 0 20zm3.1-14L10 9.1 6.9 6l-.9.9L9.1 10 6 13.1l.9.9 3.1-3.1 3.1 3.1.9-.9-3.1-3.1L14 6.9l-.9-.9z"/></symbol><symbol id="loading-spinner" viewBox="0 0 32 32"><path d="M32 16.8h-6a10 10 0 0 1-2.4 5.7l4.2 4.3a16 16 0 0 0 4.2-10z" opacity=".7"/><path d="M9.5 23.6l-4.3 4.2a16 16 0 0 0 10 4.2v-6a10 10 0 0 1-5.7-2.4z" opacity=".1"/><path d="M23.6 9.5a10 10 0 0 1 2.3 5.8H32a16 16 0 0 0-4.2-10l-4.2 4.2z" opacity=".6"/><path d="M22.5 8.4l4.3-4.3a16 16 0 0 0-10-4.1v6c2 .2 4 1 5.7 2.4z" opacity=".5"/><path d="M8.4 22.5A10 10 0 0 1 6 16.7H0a16 16 0 0 0 4.2 10l4.2-4.2z" opacity=".2"/><path d="M22.5 23.6a10 10 0 0 1-5.8 2.3V32a16 16 0 0 0 10-4.2l-4.2-4.2z"/><path d="M15.3 6V0a16 16 0 0 0-10 4.2l4.2 4.2A10 10 0 0 1 15.3 6z" opacity=".4"/><path d="M6 15.3a10 10 0 0 1 2.4-5.8L4.1 5.2a16 16 0 0 0-4.1 10h6z" opacity=".3"/></symbol><symbol id="flag-nl-be" viewBox="0 0 25 20"><path fill="#FCD21D" d="M0 20h25V0H0z"/><path fill="#BE1E2D" d="M16.5 20H25V0h-8.5z"/><path fill="#2D2926" d="M0 20h8.5V0H0z"/><path fill="#2D2926" fill-opacity=".15" d="M23.75 18.75H1.25V1.25h22.5v17.5zM25 0H0v20h25V0z"/></symbol><symbol id="flag-fr-be" viewBox="0 0 25 20"><path fill="#FCD21D" d="M0 20h25V0H0z"/><path fill="#BE1E2D" d="M16.5 20H25V0h-8.5z"/><path fill="#2D2926" d="M0 20h8.5V0H0z"/><path fill="#2D2926" fill-opacity=".15" d="M23.75 18.75H1.25V1.25h22.5v17.5zM25 0H0v20h25V0z"/></symbol><symbol id="flag-sv-se" viewBox="0 0 25 20"><path fill="#FCD21D" d="M0 0h25v20H0z"/><path fill="#1B5786" d="M0 10h8v10H0V10zm10 0h15v10H10V10zM0 0h8v8H0V0zm10 0h15v8H10V0z"/><path fill="#2D2926" fill-opacity=".15" d="M23.75 18.75H1.25V1.25h22.5v17.5zM25 0H0v20h25V0z"/></symbol><symbol id="flag-da-dk" viewBox="0 0 25 20"><path fill="#FFF" d="M0 0h25v20H0z"/><path fill="#BE1E2D" d="M0 10h8v10H0V10zm10 0h15v10H10V10zM0 0h8v8H0V0zm10 0h15v8H10V0z"/><path fill="#2D2926" fill-opacity=".15" d="M23.75 18.75H1.25V1.25h22.5v17.5zM25 0H0v20h25V0z"/></symbol><symbol id="flag-nl-nl" viewBox="0 0 25 20"><path fill="#FFF" d="M0 20h25V0H0z"/><path fill="#002B45" d="M0 20h25v-6.5H0z"/><path fill="#BE1E2D" d="M0 6.5h25V0H0z"/><path fill="#2D2926" fill-opacity=".15" d="M23.75 18.75H1.25V1.25h22.5v17.5zM25 0H0v20h25V0z"/></symbol><symbol id="flag-et-ee" viewBox="0 0 25 20"><path fill="#2D2926" d="M0 20h25V0H0z"/><path fill="#FFF" d="M0 20h25v-6.5H0z"/><path fill="#68B2E3" d="M0 6.5h25V0H0z"/><path fill="#2D2926" fill-opacity=".15" d="M23.75 18.75H1.25V1.25h22.5v17.5zM25 0H0v20h25V0z"/></symbol><symbol id="flag-fi-fi" viewBox="0 0 25 20"><path fill="#1B5786" d="M0 0h25v20H0z"/><path fill="#FFF" d="M0 11h7v9H0v-9zm11 0h14v9H11v-9zM0 0h7v7H0V0zm11 0h14v7H11V0z"/><path fill="#2D2926" fill-opacity=".15" d="M23.75 18.75H1.25V1.25h22.5v17.5zM25 0H0v20h25V0z"/></symbol><symbol id="flag-de-de" viewBox="0 0 25 20"><path fill="#BE1E2D" d="M0 20h25V0H0z"/><path fill="#FCD21D" d="M0 20h25v-6.5H0z"/><path fill="#2D2926" d="M0 6.5h25V0H0z"/><path fill="#2D2926" fill-opacity=".15" d="M23.75 18.75H1.25V1.25h22.5v17.5zM25 0H0v20h25V0z"/></symbol><symbol id="flag-it-it" viewBox="0 0 25 20"><path fill="#FFF" d="M0 20h25V0H0z"/><path fill="#BE1E2D" d="M16.5 20H25V0h-8.5z"/><path fill="#68BD45" d="M0 20h8.5V0H0z"/><path fill="#2D2926" fill-opacity=".15" d="M23.75 18.75H1.25V1.25h22.5v17.5zM25 0H0v20h25V0z"/></symbol><symbol id="flag-lv-lv" viewBox="0 0 25 20"><path fill="#FFF" d="M0 20h25V0H0z"/><path fill="#BE1E2D" d="M0 20h25v-6.5H0zM0 6.5h25V0H0z"/><path fill="#2D2926" fill-opacity=".15" d="M23.75 18.75H1.25V1.25h22.5v17.5zM25 0H0v20h25V0z"/></symbol><symbol id="flag-lt-lt" viewBox="0 0 25 20"><path fill="#68BD45" d="M0 20h25V0H0z"/><path fill="#BE1E2D" d="M0 20h25v-6.5H0z"/><path fill="#FCD21D" d="M0 6.5h25V0H0z"/><path fill="#2D2926" fill-opacity=".15" d="M23.75 18.75H1.25V1.25h22.5v17.5zM25 0H0v20h25V0z"/></symbol><symbol id="flag-nb-no" viewBox="0 0 25 20"><path fill="#002B45" d="M0 0h25v20H0z"/><path fill="#FFF" d="M0 10h8v10H0V10zm10 0h15v10H10V10zM0 0h8v8H0V0zm10 0h15v8H10V0z"/><path fill="#BE1E2D" d="M0 11h7v9H0v-9zm11 0h14v9H11v-9zM0 0h7v7H0V0zm11 0h14v7H11V0z"/><path fill="#2D2926" fill-opacity=".15" d="M23.75 18.75H1.25V1.25h22.5v17.5zM25 0H0v20h25V0z"/></symbol><symbol id="flag-ru-ru" viewBox="0 0 25 20"><path fill="#1B5786" d="M0 20h25V0H0z"/><path fill="#BE1E2D" d="M0 20h25v-6.5H0z"/><path fill="#FFF" d="M0 6.5h25V0H0z"/><path fill="#2D2926" fill-opacity=".15" d="M23.75 18.75H1.25V1.25h22.5v17.5zM25 0H0v20h25V0z"/></symbol><symbol id="flag-es-es" viewBox="0 0 25 20"><path fill="#FCD21D" d="M0 20h25V0H0z"/><path fill="#BE1E2D" d="M0 20v-5.5h25V20H0zM0 5.5V0h25v5.5H0z"/><path fill="#2D2926" fill-opacity=".15" d="M23.75 18.75H1.25V1.25h22.5v17.5zM25 0H0v20h25V0z"/></symbol><symbol id="flag-pl-pl" viewBox="0 0 25 20"><path fill="#BE1E2D" d="M0 20h25V10H0z"/><path fill="#FFF" d="M0 10h25V0H0z"/><path fill="#2D2926" fill-opacity=".15" d="M23.75 18.75H1.25V1.25h22.5v17.5zM25 0H0v20h25V0z"/></symbol><symbol id="flag-fr-fr" viewBox="0 0 25 20"><path fill="#FFF" d="M0 20h25V0H0z"/><path fill="#BE1E2D" d="M16.5 20H25V0h-8.5z"/><path fill="#002B45" d="M0 20h8.5V0H0z"/><path fill="#2D2926" fill-opacity=".15" d="M23.75 18.75H1.25V1.25h22.5v17.5zM25 0H0v20h25V0z"/></symbol><symbol id="flag-en-gb" viewBox="0 0 25 20"><path fill="#FFF" d="M0 0h25v20H0z"/><path fill="#BE1E2D" d="M11.25 0h2.5v7.5H25v5H13.75V20h-2.5v-7.5H0v-5h11.25V0zM0 .897V0l7.353 5.926H6.23L0 .897zm17.647 5.029L25 0v.897l-6.23 5.029h-1.123zm0 8.148h1.123L25 19.103V20l-7.353-5.926zm-11.417 0h1.123L0 20v-.897l6.23-5.029z"/><path fill="#002B45" d="M0 5.926V2.222l4.412 3.704H0zM2.206 0h8.088v5.926h-.225L2.206 0zm18.382 5.926L25 2.222v3.704h-4.412zM14.706 0h8.088l-7.863 5.926h-.225V0zm5.882 14.074H25v3.704l-4.412-3.704zm-5.882 0h.225L22.794 20h-8.088v-5.926zM0 14.074h4.412L0 17.778v-3.704zm10.07 0h.224V20H2.206l7.863-5.926z"/><path fill="#2D2926" fill-opacity=".15" d="M23.75 18.75H1.25V1.25h22.5v17.5zM25 0H0v20h25V0z"/></symbol><symbol id="flag-en-us" viewBox="0 0 25 20"><g fill="none" fill-rule="evenodd"><path fill="#BE1E2D" d="M0 20h25V0H13v9.5H0z"/><path fill="#FFF" d="M13 3.5V2h12v1.5H13zm0 3V5h12v1.5H13zm0 3V8h12v1.5H13zm-13 3V11h25v1.5H0zm0 3V14h25v1.5H0zm0 3V17h25v1.5H0z"/><path fill="#002B45" d="M0 9.5V0h13v9.5H0zm1.22-8.19l-.35.06.26.26-.06.36.31-.18.32.17-.07-.36.25-.27-.35-.04-.16-.34-.15.34zm2.03 0l-.35.06.26.26-.06.36.31-.18.32.17-.06-.36.25-.27-.36-.04L3.4.97l-.15.34zm2.03 0l-.35.06.26.26-.05.36.3-.18.33.17-.07-.36.25-.27-.35-.04-.16-.34-.16.34zm2.04 0l-.35.06.25.26-.05.36.31-.18.32.17-.07-.36.25-.27-.35-.04-.16-.34-.15.34zm2.03 0L9 1.37l.26.26-.06.36.31-.18.32.17-.06-.36.25-.27-.36-.04L9.5.97l-.15.34zm2.03 0l-.35.06.26.26-.05.36.3-.18.32.17-.06-.36.25-.27-.35-.04-.16-.34-.16.34zM1.22 3.64l-.35.06.26.25-.06.37.31-.18.32.17-.07-.37.25-.26-.35-.05-.16-.33-.15.34zm2.03 0l-.35.06.26.25-.06.37.31-.18.32.17-.06-.37.25-.26-.36-.05-.16-.33-.15.34zm2.03 0l-.35.06.26.25-.05.37.3-.18.33.17-.07-.37.25-.26-.35-.05-.16-.33-.16.34zm2.04 0l-.35.06.25.25-.05.37.31-.18.32.17-.07-.37.25-.26-.35-.05-.16-.33-.15.34zm2.03 0L9 3.7l.26.25-.06.37.31-.18.32.17-.06-.37.25-.26-.36-.05-.16-.33-.15.34zm2.03 0l-.35.06.26.25-.05.37.3-.18.32.17-.06-.37.25-.26-.35-.05-.16-.33-.16.34zm-9.3-1.17l-.34.06.25.26-.05.37.31-.18.32.17-.07-.37.25-.26-.35-.05-.16-.33-.15.33zm2.04 0l-.35.06.26.26-.06.37.31-.18.32.17-.06-.37.25-.26-.35-.05-.17-.33-.15.33zm2.03 0l-.35.06.26.26-.05.37.3-.18.32.17-.06-.37.25-.26-.35-.05-.16-.33-.16.33zm2.04 0l-.35.06.25.26-.05.37.31-.18.32.17-.07-.37.25-.26-.35-.05-.16-.33-.15.33zm2.03 0l-.35.06.26.26-.06.37.31-.18.32.17-.06-.37.25-.26-.36-.05-.16-.33-.15.33zM2.09 4.8l-.35.06.25.26-.05.36.31-.18.32.17-.07-.36.25-.27-.35-.04-.16-.33-.15.33zm2.03 0l-.35.06.26.26-.06.36.31-.18.32.17-.06-.36.25-.27-.35-.04-.17-.33-.15.33zm2.03 0l-.35.06.26.26-.05.36.3-.18.32.17-.06-.36.25-.27-.35-.04-.16-.33-.16.33zm2.04 0l-.35.06.25.26-.05.36.31-.18.32.17-.07-.36.25-.27-.35-.04-.16-.33-.15.33zm2.03 0l-.35.06.26.26-.06.36.31-.18.32.17-.06-.36.25-.27-.36-.04-.16-.33-.15.33zM2.09 7.13l-.35.06.25.25-.05.37.31-.18.32.17-.07-.36.25-.27-.35-.05-.16-.33-.15.34zm2.03 0l-.35.06.26.25-.06.37.31-.18.32.17-.06-.36.25-.27-.35-.05-.17-.33-.15.34zm2.03 0l-.35.06.26.25-.05.37.3-.18.32.17-.06-.36.25-.27-.35-.05-.16-.33-.16.34zm2.04 0l-.35.06.25.25-.05.37.31-.18.32.17-.07-.36.25-.27-.35-.05-.16-.33-.15.34zm2.03 0l-.35.06.26.25-.06.37.31-.18.32.17-.06-.36.25-.27-.36-.05-.16-.33-.15.34zm-9-1.16l-.35.05.26.26-.06.37.31-.18.32.17-.07-.37.25-.26-.35-.05-.16-.33-.15.34zm2.03 0l-.35.05.26.26-.06.37.31-.18.32.17-.06-.37.25-.26-.36-.05-.16-.33-.15.34zm2.03 0l-.35.05.26.26-.05.37.3-.18.33.17-.07-.37.25-.26-.35-.05-.16-.33-.16.34zm2.04 0l-.35.05.25.26-.05.37.31-.18.32.17-.07-.37.25-.26-.35-.05-.16-.33-.15.34zm2.03 0L9 6.02l.26.26-.06.37.31-.18.32.17-.06-.37.25-.26-.36-.05-.16-.33-.15.34zm2.03 0l-.35.05.26.26-.05.37.3-.18.32.17-.06-.37.25-.26-.35-.05-.16-.33-.16.34zM1.22 8.29l-.35.06.26.26-.06.36.31-.17.32.16-.07-.36.25-.26-.35-.05-.16-.33-.15.33zm2.03 0l-.35.06.26.26-.06.36.31-.17.32.16-.06-.36.25-.26-.36-.05-.16-.33-.15.33zm2.03 0l-.35.06.26.26-.05.36.3-.17.33.16-.07-.36.25-.26-.35-.05-.16-.33-.16.33zm2.04 0l-.35.06.25.26-.05.36.31-.17.32.16-.07-.36.25-.26-.35-.05-.16-.33-.15.33zm2.03 0L9 8.35l.26.26-.06.36.31-.17.32.16-.06-.36.25-.26-.36-.05-.16-.33-.15.33zm2.03 0l-.35.06.26.26-.05.36.3-.17.32.16-.06-.36.25-.26-.35-.05-.16-.33-.16.33z"/><path fill="#2D2926" fill-opacity=".15" fill-rule="nonzero" d="M23.75 18.75H1.25V1.25h22.5v17.5zM25 0H0v20h25V0z"/></g></symbol><symbol id="flag-pt-br" viewBox="0 0 25 20"><g fill="none" fill-rule="evenodd"><path fill="#68BD45" d="M0 20h25V0H0z"/><path fill="#2D2926" fill-opacity=".1" fill-rule="nonzero" d="M23.8 18.8H1.1V1.1h22.6v17.6zM25 0H0v20h25V0z"/><path fill="#FCD21D" transform="rotate(-45 12.4 10.4)" d="M5 3l12.9 2 2 12.9-13-1.9z"/><circle cx="12.5" cy="10.5" r="5.5" fill="#1B5786"/><path fill="#FFF" d="M7.6 8c4 .1 7.7 1.2 10.4 2.9 0 .3 0 .6-.2.9A21 21 0 0 0 7.2 9l.4-1z"/></g></symbol><symbol id="flag-en-ca" viewBox="0 0 25 20"><g fill="none" fill-rule="evenodd"><path fill="#FFF" d="M0 20h25V0H0z"/><path fill="#BE1E2D" d="M19 20V0h6v20h-6zM0 20V0h6v20H0zM12.5 4l1 1.8c0 .2.3.2.5 0l.6-.3-.5 2.7c0 .5.3.5.4.3l1.3-1.3.2.7.2.1 1.6-.3-.4 1.5c-.1.3-.2.4 0 .5l.6.3-2.7 2.1c0 .1-.1.2 0 .4l.2.7c-1 0-1.8-.2-2.7-.3l-.2.2.1 2.8h-.4V13l-.1-.2c-1 0-1.8.2-2.7.3l.3-.7c0-.2 0-.3-.2-.4L7 10l.5-.3c.3 0 .2-.2.1-.5l-.4-1.5 1.6.3H9l.2-.7 1.2 1.3c.2.2.6.2.5-.3l-.6-2.7.7.4.5-.1 1-1.8z"/><path fill="#2D2926" fill-opacity=".1" fill-rule="nonzero" d="M23.8 18.8H1.1V1.1h22.6v17.6zM25 0H0v20h25V0z"/></g></symbol><symbol id="flag-zh-cn" viewBox="0 0 25 20"><g fill="none" fill-rule="evenodd"><path fill="#BE1E2D" d="M0 20h25V0H0z"/><path fill="#FCD21D" d="M3.7 4.6L4.5 3l.8 1.6L7 5 5.8 6.2 6 8 4.5 7 3 8l.3-1.8L2 4.9l1.7-.3zm4-2L8 2l.3.6.7.1-.5.6.1.7-.6-.4-.6.4.1-.7-.5-.5.7-.1zm2 2L10 4l.3.7h.7l-.5.6.1.7-.6-.3-.6.3.1-.7-.5-.5.7-.1zm-2 4L8 8l.3.7H9l-.5.6.1.7-.6-.3-.6.3.1-.7-.5-.5.7-.1zm2-2L10 6l.3.7h.7l-.5.6.1.7-.6-.3-.6.3.1-.7-.5-.5.7-.1z"/><path fill="#2D2926" fill-opacity=".1" fill-rule="nonzero" d="M23.8 18.8H1.1V1.1h22.6v17.6zM25 0H0v20h25V0z"/></g></symbol><symbol id="flag-cs-cz" viewBox="0 0 25 20"><g fill="none" fill-rule="evenodd"><path fill="#BE1E2D" d="M0 20h25V10H0z"/><path fill="#FFF" d="M0 10h25V0H0z"/><path fill="#1B5786" d="M0 0v20l10-10z"/><path fill="#2D2926" fill-opacity=".1" fill-rule="nonzero" d="M23.8 18.8H1.1V1.1h22.6v17.6zM25 0H0v20h25V0z"/></g></symbol><symbol id="flag-ee-ee" viewBox="0 0 25 20"><g fill="none" fill-rule="evenodd"><path fill="#2D2926" d="M0 20h25V0H0z"/><path fill="#FFF" d="M0 20h25v-6.5H0z"/><path fill="#68B2E3" d="M0 6.5h25V0H0z"/><path fill="#2D2926" fill-opacity=".1" fill-rule="nonzero" d="M23.8 18.8H1.1V1.1h22.6v17.6zM25 0H0v20h25V0z"/></g></symbol><symbol id="flag-ja-jp" viewBox="0 0 25 20"><g fill="none" fill-rule="evenodd"><path fill="#FFF" d="M0 20h25V0H0z"/><path fill="#2D2926" fill-opacity=".1" fill-rule="nonzero" d="M23.8 18.8H1.1V1.1h22.6v17.6zM25 0H0v20h25V0z"/><circle cx="12.5" cy="10.5" r="5.5" fill="#BE1E2D"/></g></symbol><symbol id="flag-ko-kr" viewBox="0 0 25 20"><g fill="none" fill-rule="evenodd"><path fill="#FFF" d="M0 20h25V0H0z"/><path fill="#2D2926" fill-opacity=".15" fill-rule="nonzero" d="M23.75 18.75H1.25V1.25h22.5v17.5zM25 0H0v20h25V0z"/><path fill="#BE1E2D" d="M15.52 5.96a5.48 5.48 0 1 1-6.08 9.12 5.48 5.48 0 0 1 6.08-9.12z"/><path fill="#1B5786" d="M7.92 7.48a2.74 2.74 0 1 0 4.56 3.04 2.74 2.74 0 1 1 4.56 3.04 5.48 5.48 0 1 1-9.12-6.08"/><path fill="#2D2926" d="M17.7 3l2.84 2.83-.71.7L17 3.72l.7-.71zm-1 1l2.84 2.83-.71.7L16 4.72l.7-.71zm2-2l2.84 2.83-.71.7L18 2.72l.7-.71zm-1 15.54l-.7-.71L19.83 14l.7.7-2.82 2.84zm-1-1l-.7-.71L18.83 13l.7.7-2.82 2.84zm2 2l-.7-.71L20.83 15l.7.7-2.82 2.84zM6.84 3l.7.7-2.82 2.84L4 5.83 6.83 3zm1 1l.7.7-2.82 2.84L5 6.83 7.83 4zm-2-2l.7.7-2.82 2.84L3 4.83 5.83 2zm1 15.54L4 14.7l.7-.71 2.84 2.83-.71.7zm1-1L5 13.7l.7-.71 2.84 2.83-.71.7zm-2 2L3 15.7l.7-.71 2.84 2.83-.71.7z"/></g></symbol><symbol id="flag-ro-ro" viewBox="0 0 25 20"><g fill="none" fill-rule="evenodd"><path fill="#FCD21D" d="M0 20h25V0H0z"/><path fill="#BE1E2D" d="M16.5 20H25V0h-8.5z"/><path fill="#1B5786" d="M0 20h8.5V0H0z"/><path fill="#2D2926" fill-opacity=".1" fill-rule="nonzero" d="M23.8 18.8H1.1V1.1h22.6v17.6zM25 0H0v20h25V0z"/></g></symbol><symbol id="flag-sk-sk" viewBox="0 0 25 20"><g fill="none" fill-rule="evenodd"><path fill="#1B5786" d="M0 20h25V0H0z"/><path fill="#BE1E2D" d="M0 20h25v-6.5H0z"/><path fill="#FFF" d="M0 6.5h25V0H0z"/><path fill="#2D2926" fill-opacity=".1" fill-rule="nonzero" d="M23.8 18.8H1.1V1.1h22.6v17.6zM25 0H0v20h25V0z"/><path fill="#1B5786" d="M10 7c0 1.4-1.7 3-2.5 3C6.8 10 5 8.3 5 7V4.2c0-.5 1.1-.8 2.5-.8 1.3 0 2.4.3 2.4.8v3z"/><path fill="#FFF" d="M9.4 7c0 1.1-1.3 2.2-2 2.2-.4 0-1.8-1.1-1.8-2.1L6.3 6c0-.2.4.4.4.4L7.5 5l.8 1.5.3-.3.8 1z"/><path stroke="#BE1E2D" stroke-width=".5" d="M5 6.4V7c0 1.4 1.9 3 2.5 3 .8 0 2.5-1.6 2.5-3v-.6"/><path fill="#FCD21D" d="M7.5 4.6l-.3.2v-.4L7 4.2h.3l.2-.4.1.3H8l-.3.3v.3l-.2-.1zm1 0l-.3.2v-.4L8 4.2h.3l.2-.4.1.3H9l-.3.3v.3l-.2-.1zm-2 0l-.3.2v-.4L6 4.2h.3l.2-.4.1.3H7l-.3.3v.3l-.2-.1z"/></g></symbol><symbol id="alert" viewBox="0 0 16 16"><path fill="#FFF" d="M8 0a8 8 0 1 1 0 16A8 8 0 0 1 8 0zm0 2a6 6 0 1 0 0 12A6 6 0 0 0 8 2zM7 4h2v.2l-.2 4.6V9H7.2v-.2L7 4.2V4zm2 8H7v-2h2v2z"/></symbol></defs></svg>